<svg width="188" height="150" viewBox="0 0 188 150" fill="none" xmlns="http://www.w3.org/2000/svg">
<g clip-path="url(#clip0_417_76)">
<path d="M20.7387 19.6029C20.3862 9.40441 28.3212 0 39.0467 0H148.968C159.694 0 167.628 9.40441 167.276 19.6029C166.934 29.4007 167.375 42.0882 170.566 52.4375C173.768 62.8162 179.162 69.3787 188 70.2206V79.7794C179.162 80.6213 173.768 87.1838 170.566 97.5625C167.375 107.912 166.934 120.599 167.276 130.397C167.628 140.596 159.694 150 148.968 150H39.0467C28.3212 150 20.3862 140.596 20.7387 130.397C21.0802 120.599 20.6359 107.912 17.4488 97.5625C14.2469 87.1838 8.8382 80.6213 0 79.7794V70.2206C8.8382 69.3787 14.2469 62.8162 17.4488 52.4375C20.6359 42.0882 21.0802 29.4007 20.7387 19.6029Z" fill="url(#paint0_linear_417_76)"/>
<path fill-rule="evenodd" clip-rule="evenodd" d="M125.909 92.3163C125.909 106.36 115.444 114.875 98.0759 114.875H65.3228V35.0957H97.907C112.389 35.0957 121.892 42.945 121.892 54.9964C121.892 63.456 115.503 71.0332 107.355 72.3567V72.8016C118.444 74.0185 125.909 81.7023 125.909 92.3163ZM77.9944 104.757V78.4964H94.7382C106.73 78.4964 112.954 82.9192 112.954 91.5442C112.954 100.169 106.903 104.757 95.4762 104.757H77.9944ZM77.9944 45.2134H94.852C104.017 45.2134 109.22 49.3053 109.22 56.7133C109.22 64.6178 103.169 69.0406 92.1935 69.0406H77.9944V45.2134Z" fill="white"/>
</g>
<defs>
<linearGradient id="paint0_linear_417_76" x1="27.9063" y1="3.67647" x2="192.198" y2="133.991" gradientUnits="userSpaceOnUse">
<stop stop-color="#9013FE"/>
<stop offset="1" stop-color="#6610F2"/>
</linearGradient>
<clipPath id="clip0_417_76">
<rect width="188" height="150" fill="white"/>
</clipPath>
</defs>
</svg>
