<svg width="132" height="150" viewBox="0 0 132 150" fill="none" xmlns="http://www.w3.org/2000/svg">
<g clip-path="url(#clip0_417_79)">
<path fill-rule="evenodd" clip-rule="evenodd" d="M132 0L119.976 134.985L65.9208 150L12.0122 135.01L0 0H132Z" fill="#E44D26"/>
<path fill-rule="evenodd" clip-rule="evenodd" d="M65.9939 138.525L109.681 126.392L119.951 11.0352H65.9939V138.525Z" fill="#F16529"/>
<path fill-rule="evenodd" clip-rule="evenodd" d="M42.6273 44.1528H66.006V27.6001H24.5603L24.9502 32.0435L29.007 77.6733H65.9816V61.1084H44.138L42.6273 44.1528ZM46.343 85.9497H29.7623L32.0771 111.951L65.9329 121.362L66.006 121.338V104.114L65.9329 104.138L47.5248 99.1577L46.343 85.9497Z" fill="#EBEBEB"/>
<path fill-rule="evenodd" clip-rule="evenodd" d="M65.9451 77.6733H86.2902L84.3776 99.1455L65.9451 104.126V121.35L99.8253 111.938L100.069 109.143L103.955 65.5518L104.357 61.1084H65.9451V77.6733ZM65.9451 44.1162V44.1528H105.856L106.185 40.4297L106.94 32.0312L107.33 27.5879H65.9451V44.1162Z" fill="white"/>
</g>
<defs>
<clipPath id="clip0_417_79">
<rect width="132" height="150" fill="white"/>
</clipPath>
</defs>
</svg>
