<svg width="154" height="150" viewBox="0 0 154 150" fill="none" xmlns="http://www.w3.org/2000/svg">
<g clip-path="url(#clip0_417_122)">
<path d="M126.729 0H27.2711C12.2097 0 0 12.1976 0 27.244V122.756C0 137.802 12.2097 150 27.2711 150H126.729C141.79 150 154 137.802 154 122.756V27.244C154 12.1976 141.79 0 126.729 0Z" fill="#330000"/>
<path d="M74.6258 90.0194H50.7602L45.9064 105.087C45.8423 105.363 45.6827 105.607 45.4558 105.777C45.2289 105.948 44.9491 106.032 44.6659 106.016H32.5795C31.889 106.016 31.6481 105.637 31.8569 104.879L52.5187 45.4218C52.7194 44.8022 52.9262 44.1003 53.139 43.3162C53.4072 41.9384 53.5453 40.5386 53.5515 39.135C53.5391 39.052 53.5434 38.9673 53.564 38.886C53.5847 38.8046 53.6213 38.7282 53.6717 38.661C53.7221 38.5939 53.7853 38.5374 53.8577 38.4948C53.9301 38.4523 54.0102 38.4245 54.0935 38.4131C54.1533 38.404 54.2142 38.404 54.2741 38.4131H70.6994C71.1811 38.4131 71.4552 38.5845 71.5274 38.9274L94.9774 104.981C95.1852 105.667 94.9774 106.013 94.3572 106.013H80.9279C80.6973 106.039 80.4653 105.98 80.2753 105.847C80.0852 105.714 79.95 105.516 79.8951 105.291L74.6258 90.0194ZM54.4819 77.0065H70.8018C70.3902 75.6288 69.9085 74.0806 69.3565 72.362C68.8044 70.6434 68.2193 68.8025 67.601 66.8392L65.7402 60.9585C65.1199 58.9972 64.5518 57.1041 64.0359 55.2793C63.52 53.4544 63.0513 51.7899 62.6298 50.2859H62.5274C61.9455 53.0725 61.2209 55.8275 60.3564 58.54C59.3929 61.6383 58.4113 64.8038 57.4116 68.0364C56.412 71.2691 55.4354 74.2591 54.4819 77.0065Z" fill="#FF9A00"/>
<path d="M108.922 49.3563C107.868 49.3982 106.817 49.2176 105.838 48.8263C104.859 48.4349 103.974 47.8417 103.24 47.0852C102.508 46.2958 101.939 45.3695 101.567 44.3597C101.195 43.3499 101.027 42.2766 101.072 41.2015C101.036 40.1392 101.224 39.0813 101.625 38.0966C102.025 37.1119 102.629 36.2224 103.396 35.4862C104.156 34.7575 105.053 34.1862 106.035 33.8052C107.017 33.4242 108.064 33.241 109.117 33.2662C111.596 33.2662 113.542 34.0062 114.953 35.4862C116.384 37.0378 117.142 39.0929 117.06 41.2015C117.104 42.281 116.93 43.3581 116.548 44.3689C116.166 45.3797 115.585 46.3035 114.838 47.0852C114.062 47.8501 113.135 48.4467 112.117 48.8374C111.099 49.2282 110.011 49.4049 108.922 49.3563ZM101.794 104.981V55.6492C101.794 55.0295 102.068 54.7197 102.619 54.7197H115.323C115.871 54.7197 116.148 55.0205 116.148 55.6492V104.981C116.148 105.667 115.874 106.013 115.323 106.013H102.725C102.105 106.016 101.794 105.67 101.794 104.981Z" fill="#FF9A00"/>
</g>
<defs>
<clipPath id="clip0_417_122">
<rect width="154" height="150" fill="white"/>
</clipPath>
</defs>
</svg>
