<svg width="154" height="150" viewBox="0 0 154 150" fill="none" xmlns="http://www.w3.org/2000/svg">
<g clip-path="url(#clip0_417_126)">
<path d="M126.73 0H27.2696C12.209 0 0 12.1967 0 27.2421V122.758C0 137.803 12.209 150 27.2696 150H126.73C141.791 150 154 137.803 154 122.758V27.2421C154 12.1967 141.791 0 126.73 0Z" fill="#001E36"/>
<path d="M34.6782 105.19V39.2399C34.6782 38.7619 34.8829 38.5184 35.2981 38.5184C36.3965 38.5184 37.4046 38.5184 38.9092 38.4673C40.4138 38.4162 42.0598 38.3981 43.8172 38.3651L49.3963 38.2598C51.3583 38.2258 53.3033 38.2087 55.2312 38.2087C60.4653 38.2087 64.8788 38.8621 68.4718 40.1688C71.7019 41.2626 74.6478 43.0607 77.0962 45.4326C79.1724 47.4898 80.7762 49.9731 81.7966 52.7106C82.7621 55.3763 83.25 58.191 83.2381 61.0257C83.2381 66.5331 81.9642 71.0744 79.4163 74.6498C76.8506 78.2406 73.2453 80.9599 69.0857 82.4419C64.7464 84.0592 59.9226 84.6063 54.6203 84.6063C53.1157 84.6063 52.0384 84.5913 51.4185 84.5552C50.7986 84.5191 49.8688 84.5041 48.629 84.5041V105.094C48.6447 105.2 48.6391 105.309 48.6124 105.414C48.5858 105.519 48.5386 105.617 48.4737 105.703C48.4088 105.79 48.3274 105.862 48.2342 105.917C48.1411 105.972 48.0379 106.008 47.9308 106.022C47.8541 106.034 47.7759 106.034 47.6991 106.022H35.4004C34.9069 106.013 34.6782 105.74 34.6782 105.19ZM48.629 50.9039V72.4132C49.5237 72.4833 50.3503 72.5174 51.1086 72.5154H54.518C57.0268 72.5068 59.519 72.1093 61.9057 71.337C63.9516 70.7324 65.7805 69.5533 67.1748 67.94C68.5169 66.3587 69.188 64.1542 69.188 61.3264C69.2401 59.3297 68.7179 57.3599 67.6834 55.6507C66.5992 53.9974 65.0315 52.7179 63.1936 51.9861C60.7979 51.0566 58.2394 50.618 55.6706 50.6965C54.0155 50.6965 52.552 50.7135 51.2801 50.7476C50.0082 50.7816 49.1295 50.8337 48.644 50.9039H48.629Z" fill="#31A8FF"/>
<path d="M123.183 68.502C121.241 67.5044 119.173 66.7752 117.035 66.3346C114.68 65.7939 112.271 65.5166 109.855 65.5079C108.548 65.473 107.243 65.63 105.982 65.9738C105.178 66.1516 104.464 66.6086 103.966 67.2635C103.629 67.7872 103.451 68.3967 103.451 69.0191C103.469 69.6226 103.687 70.203 104.071 70.6695C104.674 71.3749 105.412 71.9533 106.241 72.371C107.713 73.1607 109.23 73.8634 110.785 74.4753C114.252 75.6355 117.565 77.2123 120.652 79.171C122.753 80.4978 124.492 82.3239 125.713 84.486C126.743 86.5365 127.259 88.8059 127.218 91.0996C127.279 94.1245 126.414 97.0958 124.738 99.6161C122.943 102.173 120.451 104.16 117.558 105.343C114.417 106.722 110.539 107.411 105.925 107.411C102.995 107.438 100.07 107.161 97.198 106.584C94.9342 106.17 92.7307 105.476 90.6379 104.519C90.4115 104.403 90.223 104.225 90.0945 104.006C89.9661 103.786 89.903 103.535 89.9127 103.281V92.1367C89.8996 92.0274 89.9169 91.9166 89.9625 91.8164C90.0081 91.7163 90.0804 91.6305 90.1715 91.5685C90.2601 91.518 90.3622 91.4958 90.4639 91.5049C90.5656 91.514 90.662 91.5541 90.7402 91.6196C93.2141 93.0767 95.9006 94.1386 98.7026 94.7671C101.171 95.3859 103.702 95.7148 106.247 95.7471C108.654 95.7471 110.428 95.4375 111.567 94.8182C112.08 94.5835 112.514 94.2053 112.816 93.7294C113.118 93.2535 113.276 92.7003 113.27 92.1367C113.27 91.2409 112.754 90.3801 111.721 89.5544C110.687 88.7287 108.585 87.7366 105.413 86.5783C102.169 85.4507 99.094 83.8882 96.2712 81.9337C94.2523 80.5327 92.5891 78.6797 91.4143 76.5225C90.3961 74.4894 89.8802 72.2422 89.9097 69.969C89.9008 67.2307 90.653 64.5436 92.0823 62.2071C93.7064 59.6399 96.0389 57.5968 98.7989 56.3239C101.828 54.8108 105.616 54.0543 110.162 54.0543C112.825 54.0319 115.485 54.2209 118.118 54.6194C120.024 54.8643 121.887 55.37 123.655 56.1225C123.795 56.1628 123.924 56.235 124.032 56.3336C124.14 56.4322 124.223 56.5545 124.275 56.6907C124.345 56.9422 124.379 57.2022 124.377 57.4633V67.8888C124.386 68.0092 124.362 68.1298 124.309 68.2385C124.257 68.3471 124.176 68.4401 124.076 68.508C123.937 68.5762 123.784 68.6111 123.629 68.6101C123.474 68.609 123.321 68.572 123.183 68.502Z" fill="#31A8FF"/>
</g>
<defs>
<clipPath id="clip0_417_126">
<rect width="154" height="150" fill="white"/>
</clipPath>
</defs>
</svg>
